<mxfile host="app.diagrams.net" modified="2024-02-06T00:32:59.645Z" agent="Mozilla/5.0 (Windows NT 10.0; Win64; x64) AppleWebKit/537.36 (KHTML, like Gecko) Chrome/121.0.0.0 Safari/537.36" etag="q37lOURQIwCnhcGUw3H1" version="23.0.2" type="github">
  <diagram name="第 1 页" id="ZAWH_CJpqViNw-ZkkkB1">
    <mxGraphModel dx="2222" dy="1886" grid="1" gridSize="10" guides="1" tooltips="1" connect="1" arrows="1" fold="1" page="1" pageScale="1" pageWidth="850" pageHeight="1100" math="0" shadow="0">
      <root>
        <mxCell id="0" />
        <mxCell id="1" parent="0" />
        <mxCell id="5F-PmtR5ZbhKN1eGtyun-3" value="" style="edgeStyle=orthogonalEdgeStyle;rounded=0;orthogonalLoop=1;jettySize=auto;html=1;" edge="1" parent="1" source="5F-PmtR5ZbhKN1eGtyun-1" target="5F-PmtR5ZbhKN1eGtyun-2">
          <mxGeometry relative="1" as="geometry" />
        </mxCell>
        <mxCell id="5F-PmtR5ZbhKN1eGtyun-1" value="Peer review Tracking Log-EE" style="rounded=1;whiteSpace=wrap;html=1;fillColor=#f8cecc;strokeColor=#b85450;" vertex="1" parent="1">
          <mxGeometry x="340" y="90" width="120" height="60" as="geometry" />
        </mxCell>
        <mxCell id="5F-PmtR5ZbhKN1eGtyun-6" value="" style="edgeStyle=orthogonalEdgeStyle;rounded=0;orthogonalLoop=1;jettySize=auto;html=1;" edge="1" parent="1" source="5F-PmtR5ZbhKN1eGtyun-2" target="5F-PmtR5ZbhKN1eGtyun-5">
          <mxGeometry relative="1" as="geometry" />
        </mxCell>
        <mxCell id="5F-PmtR5ZbhKN1eGtyun-2" value="Filter the Received Date with Audit Date" style="whiteSpace=wrap;html=1;rounded=1;" vertex="1" parent="1">
          <mxGeometry x="340" y="180" width="120" height="60" as="geometry" />
        </mxCell>
        <mxCell id="5F-PmtR5ZbhKN1eGtyun-14" value="" style="edgeStyle=orthogonalEdgeStyle;rounded=0;orthogonalLoop=1;jettySize=auto;html=1;" edge="1" parent="1" source="5F-PmtR5ZbhKN1eGtyun-4" target="5F-PmtR5ZbhKN1eGtyun-13">
          <mxGeometry relative="1" as="geometry" />
        </mxCell>
        <mxCell id="5F-PmtR5ZbhKN1eGtyun-16" value="" style="edgeStyle=orthogonalEdgeStyle;rounded=0;orthogonalLoop=1;jettySize=auto;html=1;" edge="1" parent="1" source="5F-PmtR5ZbhKN1eGtyun-4" target="5F-PmtR5ZbhKN1eGtyun-15">
          <mxGeometry relative="1" as="geometry" />
        </mxCell>
        <mxCell id="5F-PmtR5ZbhKN1eGtyun-4" value="Peer review Audit Checklist-EE" style="rounded=1;whiteSpace=wrap;html=1;fillColor=#f8cecc;strokeColor=#b85450;" vertex="1" parent="1">
          <mxGeometry x="670" y="90" width="120" height="60" as="geometry" />
        </mxCell>
        <mxCell id="5F-PmtR5ZbhKN1eGtyun-8" value="" style="edgeStyle=orthogonalEdgeStyle;rounded=0;orthogonalLoop=1;jettySize=auto;html=1;entryX=0.5;entryY=0;entryDx=0;entryDy=0;" edge="1" parent="1" source="5F-PmtR5ZbhKN1eGtyun-5" target="5F-PmtR5ZbhKN1eGtyun-20">
          <mxGeometry relative="1" as="geometry">
            <mxPoint x="540" y="350" as="targetPoint" />
          </mxGeometry>
        </mxCell>
        <mxCell id="5F-PmtR5ZbhKN1eGtyun-9" value="Y" style="edgeLabel;html=1;align=center;verticalAlign=middle;resizable=0;points=[];" vertex="1" connectable="0" parent="5F-PmtR5ZbhKN1eGtyun-8">
          <mxGeometry x="-0.075" y="2" relative="1" as="geometry">
            <mxPoint as="offset" />
          </mxGeometry>
        </mxCell>
        <mxCell id="5F-PmtR5ZbhKN1eGtyun-11" value="" style="edgeStyle=orthogonalEdgeStyle;rounded=0;orthogonalLoop=1;jettySize=auto;html=1;entryX=0.5;entryY=0;entryDx=0;entryDy=0;" edge="1" parent="1" source="5F-PmtR5ZbhKN1eGtyun-5" target="5F-PmtR5ZbhKN1eGtyun-19">
          <mxGeometry relative="1" as="geometry">
            <mxPoint x="260" y="350" as="targetPoint" />
          </mxGeometry>
        </mxCell>
        <mxCell id="5F-PmtR5ZbhKN1eGtyun-12" value="N" style="edgeLabel;html=1;align=center;verticalAlign=middle;resizable=0;points=[];" vertex="1" connectable="0" parent="5F-PmtR5ZbhKN1eGtyun-11">
          <mxGeometry x="-0.1" y="2" relative="1" as="geometry">
            <mxPoint as="offset" />
          </mxGeometry>
        </mxCell>
        <mxCell id="5F-PmtR5ZbhKN1eGtyun-5" value="Need to Send&amp;nbsp;" style="rhombus;whiteSpace=wrap;html=1;rounded=1;" vertex="1" parent="1">
          <mxGeometry x="340" y="300" width="120" height="100" as="geometry" />
        </mxCell>
        <mxCell id="5F-PmtR5ZbhKN1eGtyun-18" style="edgeStyle=orthogonalEdgeStyle;rounded=0;orthogonalLoop=1;jettySize=auto;html=1;entryX=1;entryY=0.5;entryDx=0;entryDy=0;" edge="1" parent="1" source="5F-PmtR5ZbhKN1eGtyun-13" target="5F-PmtR5ZbhKN1eGtyun-2">
          <mxGeometry relative="1" as="geometry" />
        </mxCell>
        <mxCell id="5F-PmtR5ZbhKN1eGtyun-13" value="Filter the Process Date with Audit Date" style="whiteSpace=wrap;html=1;rounded=1;" vertex="1" parent="1">
          <mxGeometry x="670" y="185" width="120" height="50" as="geometry" />
        </mxCell>
        <mxCell id="5F-PmtR5ZbhKN1eGtyun-15" value="add a macro to add process date to new line when close" style="whiteSpace=wrap;html=1;rounded=1;" vertex="1" parent="1">
          <mxGeometry x="670" y="-20" width="120" height="60" as="geometry" />
        </mxCell>
        <mxCell id="5F-PmtR5ZbhKN1eGtyun-22" value="" style="edgeStyle=orthogonalEdgeStyle;rounded=0;orthogonalLoop=1;jettySize=auto;html=1;" edge="1" parent="1" source="5F-PmtR5ZbhKN1eGtyun-19" target="5F-PmtR5ZbhKN1eGtyun-21">
          <mxGeometry relative="1" as="geometry" />
        </mxCell>
        <mxCell id="5F-PmtR5ZbhKN1eGtyun-25" value="Y" style="edgeLabel;html=1;align=center;verticalAlign=middle;resizable=0;points=[];" vertex="1" connectable="0" parent="5F-PmtR5ZbhKN1eGtyun-22">
          <mxGeometry x="-0.025" y="-1" relative="1" as="geometry">
            <mxPoint as="offset" />
          </mxGeometry>
        </mxCell>
        <mxCell id="5F-PmtR5ZbhKN1eGtyun-19" value="Account Exists in&amp;nbsp;&lt;br&gt;Peer review Audit Checklist-EE" style="rhombus;whiteSpace=wrap;html=1;fillColor=#ffe6cc;strokeColor=#d79b00;" vertex="1" parent="1">
          <mxGeometry x="120" y="390" width="120" height="130" as="geometry" />
        </mxCell>
        <mxCell id="5F-PmtR5ZbhKN1eGtyun-24" value="" style="edgeStyle=orthogonalEdgeStyle;rounded=0;orthogonalLoop=1;jettySize=auto;html=1;" edge="1" parent="1" source="5F-PmtR5ZbhKN1eGtyun-20" target="5F-PmtR5ZbhKN1eGtyun-23">
          <mxGeometry relative="1" as="geometry" />
        </mxCell>
        <mxCell id="5F-PmtR5ZbhKN1eGtyun-27" value="Y" style="edgeLabel;html=1;align=center;verticalAlign=middle;resizable=0;points=[];" vertex="1" connectable="0" parent="5F-PmtR5ZbhKN1eGtyun-24">
          <mxGeometry x="-0.175" y="-3" relative="1" as="geometry">
            <mxPoint y="-3" as="offset" />
          </mxGeometry>
        </mxCell>
        <mxCell id="5F-PmtR5ZbhKN1eGtyun-32" value="" style="edgeStyle=orthogonalEdgeStyle;rounded=0;orthogonalLoop=1;jettySize=auto;html=1;" edge="1" parent="1" source="5F-PmtR5ZbhKN1eGtyun-20" target="5F-PmtR5ZbhKN1eGtyun-31">
          <mxGeometry relative="1" as="geometry" />
        </mxCell>
        <mxCell id="5F-PmtR5ZbhKN1eGtyun-33" value="N" style="edgeLabel;html=1;align=center;verticalAlign=middle;resizable=0;points=[];" vertex="1" connectable="0" parent="5F-PmtR5ZbhKN1eGtyun-32">
          <mxGeometry x="-0.0087" relative="1" as="geometry">
            <mxPoint as="offset" />
          </mxGeometry>
        </mxCell>
        <mxCell id="5F-PmtR5ZbhKN1eGtyun-20" value="Account Not Exists in&lt;br&gt;Peer review Audit Checklist-EE" style="rhombus;whiteSpace=wrap;html=1;fillColor=#ffe6cc;strokeColor=#d79b00;" vertex="1" parent="1">
          <mxGeometry x="570" y="390" width="120" height="130" as="geometry" />
        </mxCell>
        <mxCell id="5F-PmtR5ZbhKN1eGtyun-21" value="Log Error" style="whiteSpace=wrap;html=1;" vertex="1" parent="1">
          <mxGeometry x="-80" y="425" width="120" height="60" as="geometry" />
        </mxCell>
        <mxCell id="5F-PmtR5ZbhKN1eGtyun-23" value="Log Error" style="whiteSpace=wrap;html=1;" vertex="1" parent="1">
          <mxGeometry x="770" y="425" width="120" height="60" as="geometry" />
        </mxCell>
        <mxCell id="5F-PmtR5ZbhKN1eGtyun-35" value="" style="edgeStyle=orthogonalEdgeStyle;rounded=0;orthogonalLoop=1;jettySize=auto;html=1;" edge="1" parent="1" source="5F-PmtR5ZbhKN1eGtyun-31" target="5F-PmtR5ZbhKN1eGtyun-34">
          <mxGeometry relative="1" as="geometry" />
        </mxCell>
        <mxCell id="5F-PmtR5ZbhKN1eGtyun-31" value="Check with Peer Review Tracking Log-Answer" style="whiteSpace=wrap;html=1;fillColor=#f8cecc;strokeColor=#b85450;" vertex="1" parent="1">
          <mxGeometry x="570" y="575" width="120" height="60" as="geometry" />
        </mxCell>
        <mxCell id="5F-PmtR5ZbhKN1eGtyun-34" value="Check CorrectorWrong&lt;br&gt;and&amp;nbsp;&lt;br&gt;IfWrong,InputCorrctInformation" style="whiteSpace=wrap;html=1;" vertex="1" parent="1">
          <mxGeometry x="500" y="690" width="260" height="60" as="geometry" />
        </mxCell>
      </root>
    </mxGraphModel>
  </diagram>
</mxfile>
